<svg width="50" height="50" viewBox="0 0 50 50" fill="none" xmlns="http://www.w3.org/2000/svg">
<path d="M7.52832 16.0841C7.52832 15.9247 7.59171 15.7726 7.704 15.6603C7.81629 15.548 7.96842 15.4864 8.12779 15.4864H17.7937C18.1179 15.4955 18.3768 15.7599 18.3768 16.0841C18.3768 16.4083 18.1179 16.6745 17.7937 16.6836H8.12779C7.96842 16.6836 7.81628 16.6202 7.704 16.5079C7.59171 16.3956 7.52832 16.2434 7.52832 16.0841ZM19.7873 21.1117H20.5407C20.8631 21.1027 21.1221 20.8365 21.1221 20.5123C21.1221 20.1881 20.8631 19.9237 20.5407 19.9146H19.7891C19.6261 19.9092 19.4704 19.9707 19.3545 20.083C19.2386 20.1953 19.1734 20.3511 19.1734 20.5122C19.1734 20.6752 19.2386 20.8292 19.3545 20.9415C19.4704 21.0556 19.6261 21.1153 19.7891 21.1117L19.7873 21.1117ZM8.12595 21.1117H17.7937C18.1179 21.1027 18.3769 20.8365 18.3769 20.5123C18.3769 20.1881 18.1179 19.9237 17.7937 19.9146H8.1278C7.96662 19.9092 7.80905 19.9707 7.69314 20.083C7.57724 20.1953 7.51204 20.3511 7.51204 20.5122C7.51204 20.6752 7.57724 20.8292 7.69314 20.9415C7.80905 21.0556 7.96662 21.1153 8.1278 21.1117L8.12595 21.1117ZM22.9169 37.6306H8.1292C7.96801 37.627 7.81045 37.6886 7.69454 37.8009C7.57863 37.9132 7.51343 38.0689 7.51343 38.2301C7.51343 38.3913 7.57863 38.547 7.69454 38.6593C7.81045 38.7716 7.96801 38.8332 8.1292 38.8278H22.9169C23.0799 38.8332 23.2356 38.7716 23.3515 38.6593C23.4674 38.547 23.5326 38.3913 23.5326 38.2301C23.5326 38.0689 23.4674 37.9132 23.3515 37.8009C23.2356 37.6886 23.0799 37.627 22.9169 37.6306ZM31.311 33.2025H8.1292C7.96801 33.1989 7.81045 33.2587 7.69454 33.3728C7.57863 33.4851 7.51343 33.639 7.51343 33.802C7.51343 33.9632 7.57863 34.1189 7.69454 34.2312C7.81045 34.3435 7.96801 34.4051 8.1292 34.3997H31.311C31.4722 34.4051 31.6298 34.3435 31.7457 34.2312C31.8616 34.1189 31.9268 33.9632 31.9268 33.802C31.9268 33.639 31.8616 33.4851 31.7457 33.3728C31.6298 33.2587 31.4722 33.1989 31.311 33.2025ZM43.9015 31.4621H43.9033C42.8819 32.4853 41.6359 33.2533 40.2649 33.7079V42.5513C40.2649 42.7106 40.2015 42.8628 40.0892 42.975C39.9769 43.0873 39.8248 43.1507 39.6654 43.1507H36.0577V46.4197C36.0577 46.7512 35.7897 47.0192 35.4583 47.0192H3.97642C3.81886 47.0192 3.66491 46.9558 3.55263 46.8435C3.44034 46.7313 3.37695 46.5773 3.37695 46.4179V7.52858C3.37695 7.36921 3.44034 7.21707 3.55263 7.10479C3.66492 6.9925 3.81705 6.92911 3.97642 6.92911H7.58226V3.66372C7.58226 3.3341 7.8503 3.06605 8.18174 3.06424H39.6636C39.995 3.06424 40.2631 3.33228 40.2631 3.66372V16.0841C43.3183 17.0983 45.631 19.6247 46.3719 22.7581C47.1145 25.8913 46.178 29.1856 43.9015 31.4621ZM8.78107 6.92924H35.4582C35.7897 6.92924 36.0577 7.19728 36.0577 7.52872V15.6985C37.0574 15.5608 38.0735 15.5862 39.0659 15.7727V4.2597H8.78121L8.78107 6.92924ZM28.857 14.13H33.6473L28.857 9.33969V14.13ZM34.8606 13.65V8.12626H29.3368L34.8606 13.65ZM34.8606 45.8204V33.8419C33.3122 33.4181 31.9013 32.5958 30.7676 31.4603C30.313 31.0057 29.9073 30.5058 29.556 29.9698H8.12715C7.96597 29.9734 7.8084 29.9136 7.6925 29.7995C7.57659 29.6873 7.51139 29.5333 7.51139 29.3703C7.51139 29.2091 7.57659 29.0534 7.6925 28.9411C7.8084 28.8288 7.96597 28.7672 8.12715 28.7727H28.8911C28.4239 27.753 28.1467 26.6591 28.0725 25.5399H8.12688C7.96569 25.5453 7.80813 25.4837 7.69222 25.3714C7.57631 25.2592 7.51111 25.1034 7.51111 24.9422C7.51111 24.7792 7.57631 24.6253 7.69222 24.513C7.80813 24.3989 7.96569 24.3391 8.12688 24.3427H28.0651C28.1792 22.4085 28.8946 20.5594 30.1134 19.0527C31.3323 17.5459 32.993 16.4592 34.8601 15.9449V15.3273H28.2589C28.0995 15.3273 27.9474 15.2657 27.8351 15.1534C27.7228 15.0411 27.6594 14.8872 27.6594 14.7296V8.12653H4.57544V45.8206L34.8606 45.8204ZM39.0659 34.0139C38.0735 34.2004 37.0575 34.2258 36.0577 34.0881V41.9537H39.0659V34.0139ZM43.0558 30.6127C44.5716 29.095 45.4247 27.0376 45.4247 24.8933C45.4247 22.7471 44.5717 20.6897 43.0539 19.1738C41.5381 17.6562 39.4807 16.8031 37.3345 16.8031C35.1902 16.8031 33.1328 17.6561 31.6151 19.1738C30.0974 20.6897 29.2462 22.7471 29.2462 24.8933C29.2462 27.0376 30.0974 29.095 31.6151 30.6127C33.1328 32.1285 35.1902 32.978 37.3345 32.978C39.4789 32.978 41.5362 32.1286 43.0558 30.6127ZM41.4801 29.0425C39.8031 30.7195 37.282 31.2212 35.0908 30.312C32.8993 29.4047 31.4704 27.2676 31.4704 24.8949C31.4704 22.5242 32.8993 20.3853 35.0908 19.4778C37.2822 18.5705 39.8032 19.0721 41.4801 20.7492C42.5849 21.8467 43.2061 23.339 43.2061 24.8947C43.2061 26.4523 42.5849 27.945 41.4801 29.0425ZM40.6344 21.5937C39.2996 20.2589 37.2929 19.8587 35.5487 20.5813C33.8047 21.3039 32.6673 23.0063 32.6673 24.8935C32.6673 26.7806 33.8047 28.483 35.5487 29.2039C37.2928 29.9265 39.2995 29.528 40.6344 28.1933C41.5127 27.3203 42.0071 26.1323 42.0071 24.8935C42.0071 23.6547 41.5127 22.4666 40.6344 21.5937ZM39.1221 23.0625L36.7315 25.4531L35.5489 24.2777C35.3152 24.044 34.9367 24.044 34.7031 24.2777C34.4695 24.5113 34.4695 24.8898 34.7031 25.1234L36.3041 26.7244C36.5377 26.9581 36.9162 26.9581 37.1499 26.7244L39.9661 23.9082C40.1997 23.6746 40.1997 23.2961 39.9661 23.0624C39.7325 22.8288 39.3539 22.8288 39.1203 23.0624L39.1221 23.0625Z" fill="#333333"/>
</svg>
