<svg width="50" height="50" viewBox="0 0 50 50" fill="none" xmlns="http://www.w3.org/2000/svg">
<path d="M48.9857 10.0767V9.39998C48.9849 8.70942 48.7139 8.04737 48.232 7.55907C47.75 7.07078 47.0966 6.79612 46.4151 6.79538C46.411 6.79451 45.7366 6.79697 45.7331 6.79451H36.8936V5.6313C36.944 4.47475 39.4551 4.46064 39.5126 5.63137C39.5126 5.86163 39.6029 6.08245 39.7636 6.24526C39.9243 6.40808 40.1423 6.49954 40.3695 6.49953C40.5968 6.49952 40.8147 6.40804 40.9754 6.24522C41.1361 6.0824 41.2263 5.86156 41.2263 5.6313C41.1151 4.89971 40.7491 4.23262 40.1946 3.75069C39.6401 3.26877 38.9336 3.00385 38.2031 3.00385C37.4725 3.00385 36.7661 3.26877 36.2116 3.75069C35.6571 4.23262 35.2911 4.89971 35.1799 5.6313V6.79455H23.6877V5.6313C23.6877 5.15652 24.2998 4.74024 24.9977 4.74024C25.6947 4.74024 26.306 5.15653 26.306 5.6313C26.3056 5.74555 26.3275 5.85874 26.3704 5.96439C26.4133 6.07004 26.4764 6.16608 26.556 6.24699C26.6356 6.3279 26.7302 6.39209 26.8343 6.4359C26.9384 6.4797 27.0501 6.50225 27.1628 6.50225C27.2756 6.50225 27.3872 6.4797 27.4913 6.4359C27.5955 6.39209 27.6901 6.3279 27.7697 6.24699C27.8493 6.16608 27.9123 6.07004 27.9552 5.96439C27.9981 5.85874 28.02 5.74555 28.0197 5.6313C27.9575 4.87863 27.6055 4.181 27.0396 3.6893C26.4738 3.1976 25.7396 2.95136 24.996 3.00384C24.2526 2.95154 23.5187 3.19789 22.9532 3.68959C22.3877 4.1813 22.0359 4.87884 21.974 5.6313V6.79455H10.4815V5.6313C10.4815 5.15652 11.0936 4.74024 11.7914 4.74024C12.4884 4.74024 13.1001 5.15653 13.1001 5.6313C13.1043 5.85879 13.1964 6.07554 13.3566 6.23494C13.5168 6.39433 13.7324 6.48364 13.957 6.48364C14.1815 6.48364 14.3971 6.39433 14.5573 6.23494C14.7176 6.07554 14.8097 5.85879 14.8138 5.6313C14.726 2.17765 8.86032 2.16549 8.76777 5.63145V6.79459H4.26131C4.25788 6.79704 3.58265 6.7946 3.5785 6.79546C2.89697 6.79621 2.24356 7.07086 1.76165 7.55916C1.27973 8.04745 1.00867 8.70951 1.00793 9.40006C0.985685 13.4965 1.01842 40.9172 1.00793 44.3924C1.0087 45.0829 1.27978 45.7449 1.76169 46.2332C2.2436 46.7215 2.89699 46.9961 3.5785 46.9969H46.4151C47.0967 46.9961 47.7501 46.7215 48.232 46.2332C48.7139 45.7449 48.985 45.0828 48.9857 44.3923C48.9284 41.9575 49.0373 13.3644 48.9857 10.0767ZM37.6031 30.8895C37.4906 30.8894 37.3791 30.9118 37.2752 30.9554C37.1712 30.999 37.0767 31.063 36.9971 31.1436C36.9175 31.2242 36.8544 31.32 36.8114 31.4253C36.7683 31.5307 36.7462 31.6436 36.7463 31.7576V40.9576H4.26131C3.85705 40.9568 3.46924 40.7953 3.18131 40.5078C2.89338 40.2203 2.72832 39.8297 2.72166 39.4202V17.1035H47.272V30.8895H37.6031ZM45.9767 32.6258L38.46 39.8164V32.6258H45.9767ZM3.57851 8.53178H8.76772V9.26263C8.82981 10.0154 9.18183 10.7131 9.74766 11.205C10.3135 11.6968 11.0476 11.9432 11.7914 11.8909C12.0158 11.8865 12.2296 11.7929 12.3867 11.6304C12.5438 11.4679 12.6317 11.2494 12.6315 11.0219C12.6313 10.7944 12.543 10.5761 12.3855 10.4139C12.2281 10.2517 12.0141 10.1586 11.7897 10.1546C11.0927 10.1546 10.4814 9.73742 10.4814 9.26263V8.53178H21.974V9.26263C22.0361 10.0154 22.3881 10.7131 22.9539 11.205C23.5198 11.6968 24.2539 11.9432 24.9976 11.8909C25.1102 11.8908 25.2216 11.8683 25.3255 11.8245C25.4294 11.7808 25.5238 11.7167 25.6033 11.636C25.6828 11.5553 25.7458 11.4596 25.7887 11.3542C25.8317 11.2488 25.8537 11.1359 25.8536 11.0219C25.8535 10.9079 25.8312 10.795 25.7881 10.6897C25.7449 10.5844 25.6817 10.4888 25.6021 10.4082C25.5224 10.3277 25.4279 10.2638 25.3239 10.2203C25.2199 10.1768 25.1084 10.1544 24.9959 10.1546C24.2989 10.1546 23.6876 9.73742 23.6876 9.26262V8.53177H35.1799V9.26262C35.242 10.0154 35.5941 10.7132 36.16 11.2051C36.7259 11.6969 37.4601 11.9433 38.2039 11.8909C38.4282 11.8861 38.6416 11.7924 38.7984 11.6299C38.9553 11.4675 39.043 11.2492 39.0428 11.0219C39.0425 10.7946 38.9544 10.5765 38.7972 10.4144C38.6401 10.2522 38.4265 10.1589 38.2022 10.1546C37.5052 10.1546 36.8936 9.73741 36.8936 9.26262V8.53177H46.4151C46.6423 8.53193 46.8602 8.62345 47.0208 8.78623C47.1815 8.94902 47.2718 9.16976 47.272 9.39997V15.3671H2.72166V9.39997C2.72188 9.16978 2.81223 8.94909 2.97287 8.78632C3.13351 8.62355 3.35133 8.53201 3.57851 8.53178ZM46.4151 45.2604H3.57851C3.35133 45.2602 3.13351 45.1687 2.97287 45.0059C2.81223 44.8431 2.72188 44.6224 2.72166 44.3922V42.2838C3.19282 42.5491 3.72227 42.6902 4.26131 42.694H37.5829C37.6946 42.6991 37.8061 42.6812 37.9107 42.6412C38.0153 42.6013 38.1108 42.5402 38.1914 42.4617L47.272 33.7749V44.3922C47.2719 44.6224 47.1815 44.8432 47.0209 45.006C46.8602 45.1688 46.6423 45.2603 46.4151 45.2604Z" fill="#333333"/>
<path d="M25.8117 20.8319C23.7396 20.8342 21.7531 21.6583 20.2879 23.1234C18.8227 24.5885 17.9985 26.575 17.9961 28.6471C18.4253 39.0158 33.1991 39.0131 33.6268 28.647C33.6244 26.575 32.8003 24.5886 31.3351 23.1235C29.87 21.6584 27.8836 20.8343 25.8117 20.8319ZM25.8117 34.901C24.1537 34.899 22.5641 34.2394 21.3918 33.067C20.2194 31.8946 19.56 30.3051 19.5581 28.6471C19.8725 20.3629 31.7519 20.3648 32.0649 28.6471C32.063 30.3051 31.4036 31.8946 30.2313 33.067C29.0591 34.2394 27.4696 34.899 25.8117 34.901Z" fill="#333333"/>
<path d="M28.6435 25.8512L24.715 29.779L22.9894 28.0027C22.8439 27.8592 22.6479 27.7783 22.4435 27.7776C22.2391 27.7768 22.0425 27.8562 21.8959 27.9987C21.7493 28.1412 21.6644 28.3355 21.6594 28.5398C21.6544 28.7442 21.7297 28.9424 21.8691 29.0919L24.1468 31.4363C24.2193 31.5099 24.3056 31.5685 24.4008 31.6087C24.4959 31.649 24.5981 31.67 24.7014 31.6707C24.8047 31.6715 24.9072 31.6518 25.0029 31.6129C25.0986 31.574 25.1857 31.5165 25.2592 31.4439L29.7479 26.9556C29.8899 26.8082 29.9684 26.611 29.9664 26.4064C29.9645 26.2018 29.8824 26.0061 29.7377 25.8614C29.593 25.7167 29.3973 25.6346 29.1927 25.6327C28.9881 25.6308 28.7909 25.7093 28.6435 25.8512Z" fill="#333333"/>
</svg>
