<svg width="50" height="50" viewBox="0 0 50 50" fill="none" xmlns="http://www.w3.org/2000/svg">
<path d="M5.90359 18.1229H44.0966V9.00254H36.679C36.679 9.94602 36.9946 10.8895 37.3103 11.6758C37.6259 12.462 38.0994 12.9337 38.5728 12.9337V14.0345C37.7837 14.0345 36.8368 13.2482 36.3633 12.1475C35.8899 11.204 35.5742 10.1033 35.5742 9.00254H29.7348C29.8926 9.94602 30.2082 10.8895 30.5239 11.6758C30.8395 12.462 31.313 12.9337 31.7865 12.9337V14.0345C30.8395 14.0345 30.0504 13.2482 29.4191 12.1475C29.1035 11.204 28.7878 10.1033 28.63 9.00254H22.9484C23.1062 9.94602 23.2641 10.8895 23.5797 11.6758C24.0532 12.462 24.5266 12.9337 25.0001 12.9337V14.0345C24.0532 14.0345 23.2641 13.2482 22.6328 12.1475C22.3171 11.204 22.0015 10.1033 21.8437 9.00254H16.162C16.162 9.94602 16.4777 10.8895 16.7933 11.6758C17.109 12.462 17.5824 12.9337 18.0559 12.9337V14.0345C17.2668 14.0345 16.3199 13.2482 15.8464 12.1475C15.3729 11.204 15.0573 10.1033 15.0573 9.00254H9.21786C9.37568 9.94602 9.69132 10.8895 10.007 11.6758C10.3226 12.462 10.7961 12.9337 11.2695 12.9337V14.0345C10.3226 14.0345 9.5335 13.2482 8.90221 12.1475C8.58657 11.204 8.27092 10.1033 8.1131 9.00254H5.90359V18.1229ZM35.5742 7.9018C35.5742 6.32932 35.8899 4.91409 36.3633 3.97061C36.8368 2.86987 37.7837 2.08363 38.5728 2.08363C39.5198 2.08363 40.4667 2.86987 40.9402 3.97061C41.4136 4.91409 41.7293 6.32932 41.7293 7.9018H45.2014V48H4.79883V7.9018H8.1131C8.1131 6.32932 8.42874 4.91409 8.90221 3.97061C9.5335 2.86987 10.3226 2.08363 11.2695 2.08363C12.2165 2.08363 13.0056 2.86987 13.6369 3.97061C14.1104 4.91409 14.426 6.32932 14.426 7.9018H15.0573C15.0573 6.32932 15.3729 4.91409 15.8464 3.97061C16.3199 2.86987 17.2668 2.08363 18.0559 2.08363C19.0028 2.08363 19.9498 2.86987 20.4233 3.97061C20.8967 4.91409 21.2124 6.32932 21.2124 7.9018H21.8437C21.8437 6.32932 22.1593 4.91409 22.6328 3.97061C23.2641 2.86987 24.0532 2.08363 25.0001 2.08363C25.947 2.08363 26.7362 2.86987 27.3674 3.97061C27.8409 4.91409 28.1566 6.32932 28.1566 7.9018H28.63C28.63 6.32932 28.9457 4.91409 29.4191 3.97061C30.0504 2.86987 30.8395 2.08363 31.7865 2.08363C32.7334 2.08363 33.5225 2.86987 34.1538 3.97061C34.6273 4.91409 34.9429 6.32932 34.9429 7.9018H35.5742ZM40.6245 7.9018C40.6245 6.48657 40.4667 5.38584 39.9932 4.44235C39.6776 3.65611 39.2041 3.18437 38.5728 3.18437C38.0994 3.18437 37.6259 3.65611 37.3103 4.44235C36.8368 5.38584 36.679 6.48657 36.679 7.9018H40.6245ZM33.8382 7.9018C33.8382 6.48657 33.5225 5.38584 33.2069 4.44235C32.7334 3.65611 32.2599 3.18437 31.7865 3.18437C31.313 3.18437 30.8395 3.65611 30.5239 4.44235C30.0504 5.38584 29.7348 6.48657 29.7348 7.9018H33.8382ZM27.0518 7.9018C27.0518 6.48657 26.7362 5.38584 26.2627 4.44235C25.947 3.65611 25.4736 3.18437 25.0001 3.18437C24.5266 3.18437 24.0532 3.65611 23.5797 4.44235C23.2641 5.38584 22.9484 6.48657 22.9484 7.9018H27.0518ZM20.1076 7.9018C20.1076 6.48657 19.9498 5.38584 19.4763 4.44235C19.1607 3.65611 18.6872 3.18437 18.0559 3.18437C17.5824 3.18437 17.109 3.65611 16.7933 4.44235C16.3199 5.38584 16.162 6.48657 16.162 7.9018H20.1076ZM13.3212 7.9018C13.3212 6.48657 13.0056 5.38584 12.69 4.44235C12.2165 3.65611 11.743 3.18437 11.2695 3.18437C10.7961 3.18437 10.3226 3.65611 10.007 4.44235C9.5335 5.38584 9.21786 6.48657 9.21786 7.9018H13.3212ZM44.0966 19.2236H5.90359V47.0565H44.0966V19.2236Z" fill="#333333"/>
<path d="M14.1107 23.7839V29.2876H8.58691V23.7839H14.1107ZM13.0059 24.8847H9.69167V28.1869H13.0059V24.8847Z" fill="#333333"/>
<path d="M20.8968 23.7839V29.2876H15.373V23.7839H20.8968ZM19.7921 24.8847H16.4778V28.1869H19.7921V24.8847Z" fill="#333333"/>
<path d="M27.683 23.7839V29.2876H22.1592V23.7839H27.683ZM26.5782 24.8847H23.2639V28.1869H26.5782V24.8847Z" fill="#333333"/>
<path d="M34.6273 23.7839V29.2876H29.1035V23.7839H34.6273ZM33.5225 24.8847H30.2083V28.1869H33.5225V24.8847Z" fill="#333333"/>
<path d="M41.4134 23.7839V29.2876H35.8896V23.7839H41.4134ZM40.3087 24.8847H36.9944V28.1869H40.3087V24.8847Z" fill="#333333"/>
<path d="M14.1107 30.5458V36.2067H8.58691V30.5458H14.1107ZM13.0059 31.6465H9.69167V35.1059H13.0059V31.6465Z" fill="#333333"/>
<path d="M20.8968 30.5458V36.2067H15.373V30.5458H20.8968ZM19.7921 31.6465H16.4778V35.1059H19.7921V31.6465Z" fill="#333333"/>
<path d="M27.683 30.5458V36.2067H22.1592V30.5458H27.683ZM26.5782 31.6465H23.2639V35.1059H26.5782V31.6465Z" fill="#333333"/>
<path d="M34.6273 30.5458V36.2067H29.1035V30.5458H34.6273ZM33.5225 31.6465H30.2083V35.1059H33.5225V31.6465Z" fill="#333333"/>
<path d="M41.4134 30.5458V36.2067H35.8896V30.5458H41.4134ZM40.3087 31.6465H36.9944V35.1059H40.3087V31.6465Z" fill="#333333"/>
<path d="M14.1107 37.3071V42.9681H8.58691V37.3071H14.1107ZM13.0059 38.4079H9.69167V41.8673H13.0059V38.4079Z" fill="#333333"/>
<path d="M20.8968 37.3071V42.9681H15.373V37.3071H20.8968ZM19.7921 38.4079H16.4778V41.8673H19.7921V38.4079Z" fill="#333333"/>
<path d="M27.683 37.3071V42.9681H22.1592V37.3071H27.683ZM26.5782 38.4079H23.2639V41.8673H26.5782V38.4079Z" fill="#333333"/>
<path d="M34.6273 37.3071V42.9681H29.1035V37.3071H34.6273ZM33.5225 38.4079H30.2083V41.8673H33.5225V38.4079Z" fill="#333333"/>
<path d="M41.4134 37.3071V42.9681H35.8896V37.3071H41.4134ZM40.3087 38.4079H36.9944V41.8673H40.3087V38.4079Z" fill="#333333"/>
</svg>
