<svg width="50" height="50" viewBox="0 0 50 50" fill="none" xmlns="http://www.w3.org/2000/svg">
<path d="M46.9321 10.0083C47.3227 10.0083 47.6388 9.69224 47.6388 9.30161V7.80834C47.6388 4.82715 45.2151 2.40334 42.2338 2.40334C42.1468 2.40334 42.0616 2.40511 41.9763 2.41044C41.9461 2.40689 41.916 2.40334 41.8858 2.40334H15.0408C12.8657 2.40334 11.0955 4.17534 11.0955 6.3522V28.2627L8.27941 28.8788C7.89766 28.9622 7.65618 29.3387 7.73963 29.7204L8.86181 34.8536C8.90265 35.0365 9.01274 35.1963 9.17076 35.2975C9.28618 35.3703 9.41757 35.4094 9.55251 35.4094C9.60223 35.4094 9.65372 35.404 9.70343 35.3934L10.4936 35.2194L10.7421 36.3522C9.70165 36.8422 8.78901 37.6164 7.91901 38.7421L2.91174 39.8873C2.58858 39.9601 2.36133 40.246 2.36133 40.5762V46.9735C2.36133 47.1884 2.45898 47.3925 2.62766 47.5257C2.75373 47.6269 2.90998 47.6802 3.06801 47.6802C3.12127 47.6802 3.17454 47.6748 3.22603 47.6624L8.37694 46.4816C10.2964 48.0335 13.3183 47.112 15.3533 46.4923C15.5504 46.4319 15.7404 46.3751 15.9197 46.3218C16.0724 46.2774 16.2038 46.1816 16.2961 46.0519C17.7148 44.0509 18.2386 41.9379 17.8604 39.7574L41.9672 39.7556C41.9939 39.7556 42.0205 39.7538 42.0471 39.7503C42.1093 39.7521 42.1714 39.7556 42.2336 39.7556C45.213 39.7556 47.6386 37.332 47.6386 34.3543V32.861C47.6386 32.4704 47.3225 32.1543 46.9319 32.1543L38.246 32.1525V10.0075L46.9321 10.0083ZM46.2254 7.80838V8.59497H38.2459V7.80661C38.2459 5.6067 40.0356 3.81515 42.2338 3.81515C44.4355 3.81693 46.2254 5.60843 46.2254 7.80838ZM9.27224 30.1079L11.9249 29.5273C11.9427 29.5238 11.9622 29.5202 11.98 29.5149L13.2619 29.2344L14.0822 32.9879L13.4963 33.1157C13.4945 33.1157 13.4927 33.1157 13.4892 33.1175C13.4874 33.1175 13.4856 33.1193 13.4821 33.1193L10.0925 33.8615L9.27224 30.1079ZM19.3822 9.77065H21.3123V12.0043L20.7921 11.5835C20.6624 11.4788 20.5044 11.4255 20.3464 11.4255C20.1884 11.4255 20.0303 11.4788 19.9007 11.5835L19.3805 12.0043L19.3822 9.77065ZM18.3719 14.1261C18.6169 14.2433 18.9099 14.2078 19.1212 14.0373L20.3481 13.043L21.575 14.0373C21.7029 14.1421 21.8609 14.1954 22.0207 14.1954C22.1237 14.1954 22.2284 14.1723 22.3243 14.1261C22.5711 14.0089 22.7274 13.7603 22.7274 13.4887V9.77066H24.6823V18.1461C24.4958 18.1337 24.3041 18.1479 24.1105 18.1887C23.8868 18.2367 23.6773 18.3237 23.4855 18.4391H16.0137V9.7709H17.9686V13.4889C17.9686 13.7606 18.1251 14.0089 18.3719 14.1261ZM27.3419 36.0916L27.3348 36.056C27.3313 36.0401 27.3295 36.0259 27.3242 36.0099L24.034 20.9653C24.0305 20.9494 24.0269 20.9352 24.0234 20.921L23.9026 20.3652C23.8653 20.1929 23.8973 20.0154 23.995 19.8627C24.0908 19.7118 24.24 19.6088 24.4104 19.5715C24.7691 19.4934 25.126 19.7206 25.2041 20.0793L28.6434 35.8057C28.7215 36.1643 28.4925 36.5194 28.1356 36.5994C27.7822 36.6757 27.4183 36.4431 27.3419 36.0916ZM25.6232 34.8487C22.5763 33.3732 19.1759 32.6842 15.4864 32.7961L14.6163 28.8224C18.0166 27.3842 20.82 25.3387 22.9722 22.7287L25.6232 34.8487ZM13.1 34.6498L13.8014 37.8529L12.578 38.121L11.8766 34.9179L13.1 34.6498ZM15.2804 45.0371C15.1703 45.0708 15.0567 45.1045 14.9413 45.14C13.013 45.7278 10.3727 46.5339 9.08356 45.2164C8.91133 45.0406 8.66097 44.966 8.41952 45.0211L3.77451 46.0864V41.1396L8.48315 40.0636C8.64828 40.0263 8.79387 39.9305 8.89331 39.7955C9.58044 38.8651 10.28 38.2099 11.0524 37.7802L11.3454 39.1119C11.3454 39.1155 11.3471 39.1173 11.3471 39.1208C11.3507 39.1403 11.356 39.1581 11.3631 39.1776C11.3649 39.1847 11.3684 39.1936 11.372 39.2007C11.3773 39.2149 11.3809 39.2273 11.388 39.2398C11.3915 39.2486 11.3951 39.2557 11.3986 39.2646C11.404 39.2771 11.4093 39.2877 11.4164 39.3001C11.4199 39.3072 11.4253 39.3161 11.4306 39.3232C11.4377 39.3339 11.4448 39.3445 11.4519 39.3552C11.4572 39.3623 11.4626 39.3694 11.4679 39.3765C11.475 39.3871 11.4839 39.3978 11.4927 39.4067C11.4981 39.4138 11.5034 39.4191 11.5087 39.4262C11.5176 39.4369 11.5282 39.4475 11.5389 39.4582C11.5442 39.4635 11.5478 39.4688 11.5531 39.4724C11.5673 39.4866 11.5833 39.5008 11.5993 39.5132C11.6046 39.5185 11.6117 39.5221 11.617 39.5256C11.6277 39.5345 11.6383 39.5416 11.6508 39.5487C11.6579 39.554 11.6667 39.5576 11.6738 39.5629C11.6845 39.5682 11.6952 39.5754 11.704 39.5807C11.7129 39.586 11.7218 39.5896 11.7307 39.5931C11.7413 39.5984 11.752 39.6038 11.7626 39.6073C11.7715 39.6109 11.7804 39.6144 11.791 39.618C11.8017 39.6215 11.8123 39.6251 11.823 39.6286C11.8319 39.6322 11.8425 39.6339 11.8514 39.6375C11.8638 39.641 11.8745 39.6428 11.8869 39.6464C11.8958 39.6481 11.9047 39.6499 11.9135 39.6517C11.9295 39.6553 11.9455 39.657 11.9615 39.6588C11.9721 39.6606 11.981 39.6606 11.9917 39.6624C12.0077 39.6641 12.0219 39.6641 12.0378 39.6641H12.0414C12.0609 39.6641 12.0787 39.6624 12.0982 39.6606C12.1035 39.6606 12.1089 39.6606 12.116 39.6588C12.139 39.657 12.1639 39.6517 12.187 39.6481H12.1905L12.3628 39.6109L15.9334 38.8314C16.0613 38.803 16.1874 38.8776 16.2282 39.0019C16.8869 41.0881 16.5695 43.1161 15.2804 45.0371ZM17.475 38.343C17.1412 37.6647 16.3901 37.2883 15.6284 37.4552L15.181 37.5529L14.4796 34.3479L15.0141 34.2308C19.1014 34.023 22.8086 34.8398 26.0404 36.6633C26.3405 37.4854 27.1271 38.0287 27.9936 38.0287C28.1409 38.0287 28.2901 38.0127 28.4392 37.9808C29.5578 37.734 30.2681 36.6242 30.0248 35.5056L26.5856 19.7775C26.5057 19.4099 26.3317 19.0868 26.0955 18.8275V9.06391C26.0955 8.67328 25.7795 8.35723 25.3888 8.35723H15.3088C14.9182 8.35723 14.6021 8.67328 14.6021 9.06391V19.1457C14.6021 19.5364 14.9182 19.8524 15.3088 19.8524H22.5106C22.4627 20.1187 22.4663 20.394 22.5249 20.6656L22.5817 20.9284C20.4084 23.922 17.3844 26.2034 13.5921 27.7148L12.5108 27.9509L12.509 6.35275C12.509 4.95539 13.6454 3.81902 15.041 3.81902H38.5955C37.5124 4.80802 36.8324 6.23025 36.8324 7.81048V34.5523C36.8324 34.5896 36.8359 34.6251 36.8413 34.6588C36.9229 36.1148 37.5817 37.4198 38.5955 38.3449L17.475 38.343ZM46.225 33.5684V34.355C46.225 36.5549 44.4352 38.3429 42.2336 38.3429C40.0336 38.3429 38.2456 36.5532 38.2456 34.355V33.5684H46.225ZM34.8896 8.74615C34.8896 9.13678 34.5735 9.45284 34.1829 9.45284H28.5579C28.1672 9.45284 27.8512 9.13679 27.8512 8.74615C27.8512 8.35553 28.1672 8.03947 28.5579 8.03947H34.1829C34.5717 8.03947 34.8896 8.35552 34.8896 8.74615ZM34.8896 11.4255C34.8896 11.8161 34.5735 12.1322 34.1829 12.1322H28.5579C28.1672 12.1322 27.8512 11.8161 27.8512 11.4255C27.8512 11.0348 28.1672 10.7188 28.5579 10.7188H34.1829C34.5717 10.7188 34.8896 11.0348 34.8896 11.4255ZM34.8896 14.1048C34.8896 14.4954 34.5735 14.8115 34.1829 14.8115H28.5579C28.1672 14.8115 27.8512 14.4954 27.8512 14.1048C27.8512 13.7142 28.1672 13.3981 28.5579 13.3981H34.1829C34.5717 13.3981 34.8896 13.7142 34.8896 14.1048ZM34.8896 16.7859C34.8896 17.1765 34.5735 17.4926 34.1829 17.4926H28.5579C28.1672 17.4926 27.8512 17.1765 27.8512 16.7859C27.8512 16.3953 28.1672 16.0792 28.5579 16.0792H34.1829C34.5717 16.0774 34.8896 16.3952 34.8896 16.7859ZM34.8896 19.4652C34.8896 19.8558 34.5735 20.1719 34.1829 20.1719H28.5579C28.1672 20.1719 27.8512 19.8558 27.8512 19.4652C27.8512 19.0746 28.1672 18.7585 28.5579 18.7585H34.1829C34.5717 18.7585 34.8896 19.0746 34.8896 19.4652Z" fill="#333333"/>
</svg>
