<svg width="50" height="50" viewBox="0 0 50 50" fill="none" xmlns="http://www.w3.org/2000/svg">
<path fill-rule="evenodd" clip-rule="evenodd" d="M45.0729 48H9.18478C7.4706 48 5.83472 47.3505 4.66847 46.2081C3.50222 45.0658 3.01691 43.3052 3.00128 41.7481C2.8917 27.9295 9.8582 20.7933 13.0437 18.2583H12.9811C12.2062 18.2583 11.4548 17.9453 10.9069 17.3976C10.359 16.8498 10.0459 16.0986 10.0459 15.324C10.0459 14.5416 10.3511 13.7982 10.9069 13.2505C11.4469 12.7106 12.1671 12.4054 12.9263 12.3897L10.3824 8.2113C10.1241 7.78877 10.1163 7.25671 10.359 6.82634C10.6016 6.39596 11.0556 6.12995 11.5565 6.12995H14.1865L13.6699 4.89361C13.4899 4.47108 13.5368 3.98594 13.7951 3.61035C14.0456 3.22695 14.4761 3 14.9379 3H28.244C28.698 3 29.1284 3.22692 29.3867 3.61035C29.645 3.99379 29.6842 4.4711 29.512 4.89361L28.9954 6.12995H31.6253C32.1185 6.12995 32.5802 6.39599 32.8229 6.82634C33.0656 7.25668 33.0577 7.78879 32.7994 8.2113L30.2556 12.3897C31.0148 12.4054 31.7428 12.7106 32.275 13.2505C32.8229 13.7982 33.136 14.5494 33.136 15.324C33.136 16.1065 32.8307 16.8499 32.275 17.3976C31.727 17.9453 30.9756 18.2583 30.2008 18.2583H30.1382C31.5314 19.3695 33.6448 21.3569 35.5779 24.4009L38.3331 20.4651C38.4427 20.3086 38.6227 20.2147 38.8106 20.2147C38.9984 20.2147 39.1784 20.3086 39.288 20.4651L44.7673 28.2898C44.8926 28.4698 44.9082 28.7045 44.8065 28.9002C44.7047 29.0958 44.5012 29.2132 44.282 29.2132H41.7382V37.429H45.0648C46.685 37.429 48 38.7436 48 40.3633C48 41.3258 47.5382 42.1786 46.8259 42.7107C47.5382 43.2428 48 44.0957 48 45.0581C48 46.6779 46.685 47.9924 45.0648 47.9924L45.0729 48ZM15.0473 18.266C13.8106 19.0485 4.04209 25.7151 4.17534 41.7482C4.18317 43.008 4.54322 44.4477 5.49032 45.3711C6.44522 46.3022 7.78369 46.8265 9.18478 46.8265H30.2009C29.833 46.3335 29.6138 45.7232 29.6138 45.0659C29.6138 44.1035 30.0756 43.2506 30.788 42.7185C30.0757 42.1864 29.6138 41.3335 29.6138 40.3711C29.6138 38.7513 30.9288 37.4368 32.5491 37.4368H35.8756V29.2209H33.3318C33.1126 29.2209 32.9091 29.0957 32.8074 28.9079C32.7056 28.7123 32.7213 28.4776 32.8465 28.2976L34.8346 25.4572C32.0638 20.9032 28.8078 18.6966 28.1265 18.2664H15.0393L15.0473 18.266ZM21.0041 37.7965C20.3857 37.7026 19.8143 37.4131 19.3682 36.9671C19.0707 36.6698 18.8359 36.3099 18.695 35.9186C18.5854 35.6134 18.7341 35.277 19.0394 35.1674C19.3447 35.0579 19.6812 35.2065 19.7908 35.5117C19.8769 35.7465 20.0178 35.9655 20.1978 36.1455C20.5266 36.4741 20.9728 36.6619 21.4424 36.6619H21.5911C22.0607 36.6619 22.5069 36.4741 22.8357 36.1455C23.1644 35.8169 23.3522 35.3708 23.3522 34.9014C23.3522 34.4319 23.1644 33.9859 22.8357 33.6572C22.5069 33.3285 22.0607 33.1408 21.5911 33.1408C20.8162 33.1408 20.0648 32.8278 19.5169 32.2801C18.969 31.7323 18.6559 30.9811 18.6559 30.2065C18.6559 29.4319 18.969 28.6807 19.5169 28.133C19.9239 27.7261 20.4484 27.4444 21.0041 27.3348V26.2941C21.0041 25.9733 21.2702 25.7073 21.5912 25.7073C21.9121 25.7073 22.1782 25.9733 22.1782 26.2941V27.3035C22.7966 27.3974 23.368 27.6869 23.8141 28.1329C24.1194 28.4303 24.3463 28.7902 24.4873 29.1815C24.5968 29.4866 24.4481 29.8231 24.1429 29.9326C23.8376 30.0422 23.5011 29.8935 23.3915 29.5883C23.3053 29.3536 23.1645 29.1345 22.9844 28.9546C22.6557 28.6259 22.2095 28.4381 21.7399 28.4381H21.5912C21.1215 28.4381 20.6754 28.6259 20.3466 28.9546C20.0179 29.2832 19.83 29.7292 19.83 30.1987C19.83 30.6682 20.0179 31.1142 20.3466 31.4428C20.6753 31.7715 21.1215 31.9593 21.5912 31.9593C22.3661 31.9593 23.1175 32.2722 23.6654 32.82C24.2133 33.3678 24.5264 34.1189 24.5264 34.8935C24.5264 35.6682 24.2211 36.4194 23.6654 36.9671C23.2584 37.374 22.7339 37.6557 22.1782 37.7652V38.8059C22.1782 39.1267 21.912 39.3928 21.5911 39.3928C21.2702 39.3928 21.0041 39.1267 21.0041 38.8059V37.7965ZM46.8337 45.0659C46.8337 44.0956 46.0432 43.3054 45.0726 43.3054H32.549C31.5784 43.3054 30.7879 44.0956 30.7879 45.0659C30.7879 46.0362 31.5784 46.8265 32.549 46.8265H45.0726C46.0432 46.8265 46.8337 46.0362 46.8337 45.0659ZM14.6791 7.31134H11.5561C11.4856 7.31134 11.423 7.35047 11.3839 7.41306C11.3525 7.47566 11.3525 7.54608 11.3839 7.60868L14.2956 12.3974H16.7925L14.6713 7.31146L14.6791 7.31134ZM30.2004 13.5711H12.9804C12.5108 13.5711 12.0647 13.7589 11.7359 14.0875C11.4071 14.4162 11.2193 14.8622 11.2193 15.3317C11.2193 15.8012 11.4072 16.2472 11.7359 16.5758C12.0646 16.9045 12.5108 17.0922 12.9804 17.0922H30.2004C30.67 17.0922 31.1162 16.9045 31.4449 16.5758C31.7737 16.2472 31.9615 15.8012 31.9615 15.3317C31.9615 14.8622 31.7737 14.4162 31.4449 14.0875C31.1162 13.7589 30.67 13.5711 30.2004 13.5711ZM28.8776 12.3974L31.7893 7.60866C31.8285 7.54606 31.8285 7.47564 31.7893 7.41304C31.758 7.35045 31.6876 7.31132 31.6171 7.31132H28.4941L26.3729 12.3973L28.8776 12.3974ZM46.8334 40.3707C46.8334 39.4004 46.0429 38.6101 45.0723 38.6101H32.5487C31.5781 38.6101 30.7876 39.4004 30.7876 40.3707C30.7876 41.3409 31.5781 42.1312 32.5487 42.1312H45.0723C46.0429 42.1312 46.8334 41.3409 46.8334 40.3707ZM25.113 12.3974L28.4239 4.45548C28.4474 4.39288 28.4396 4.33028 28.4083 4.26768C28.3692 4.21291 28.3144 4.18161 28.2439 4.18161H14.9378C14.8752 4.18161 14.8126 4.21291 14.7735 4.26768C14.7343 4.32246 14.7343 4.39288 14.7578 4.45548L18.0688 12.3974H25.113ZM40.5716 37.4366V28.6338C40.5716 28.313 40.8378 28.0469 41.1587 28.0469H43.1625L38.8105 21.8342L34.4586 28.0469H36.4623C36.7833 28.0469 37.0494 28.313 37.0494 28.6338V37.4366H40.5716Z" fill="#333333"/>
</svg>
