<svg width="50" height="50" viewBox="0 0 50 50" fill="none" xmlns="http://www.w3.org/2000/svg">
<path fill-rule="evenodd" clip-rule="evenodd" d="M13.7447 8.74823H18.8156V7.56214C18.8156 6.52523 19.6608 5.68182 20.696 5.68182H21.3263C22.365 5.68182 23.2101 6.52523 23.2101 7.56214V8.74823H28.276V7.56214C28.276 6.52523 29.1212 5.68182 30.1599 5.68182H30.7902C31.8254 5.68182 32.6705 6.52523 32.6705 7.56214V8.74823H35.7299C37.4415 8.74823 38.8371 10.1438 38.8371 11.8555V30.0268H43.8921C45.3782 30.0268 46.591 31.2378 46.591 32.7257V46.163C46.591 47.6509 45.3782 48.8618 43.8921 48.8618H30.453C28.9669 48.8618 27.7541 47.6509 27.7541 46.163V40.2966L6.51641 40.2984C4.80477 40.2984 3.40918 38.9028 3.40918 37.1911V11.8575C3.40918 10.1441 4.80477 8.75028 6.51641 8.75028H9.35377V7.56419C9.35377 6.52728 10.199 5.68387 11.2341 5.68387H11.8644C12.8995 5.68387 13.7447 6.52728 13.7447 7.56419V8.75028V8.74823ZM43.4534 45.3464V47.5552C44.0002 47.5552 44.4299 47.5925 44.872 47.1469C45.1277 46.8947 45.2804 46.5467 45.2804 46.1649V32.7277C45.2804 31.9624 44.6572 31.3374 43.8919 31.3374H30.4528C29.6911 31.3374 29.0643 31.9642 29.0643 32.7277V46.1649C29.0643 46.9302 29.6911 47.5552 30.4528 47.5552H30.8914V45.334C30.8914 44.7268 31.1133 44.1976 31.5448 43.7733C34.6716 40.6909 39.693 40.7015 42.8039 43.7963C43.2318 44.2189 43.4498 44.7445 43.4534 45.3464ZM42.1519 47.5552L42.1483 45.3464C42.1483 45.1014 42.0613 44.8954 41.8855 44.7214C39.2808 42.1326 35.0746 42.1255 32.461 44.7037C32.2816 44.8794 32.1946 45.0872 32.1946 45.334V47.5552L42.1519 47.5552ZM37.175 33.168C35.1367 33.168 33.489 34.8175 33.489 36.8541C33.489 38.8889 35.1367 40.5401 37.175 40.5401C39.2134 40.5401 40.8611 38.8889 40.8611 36.8541C40.8611 34.8192 39.2099 33.168 37.175 33.168ZM38.8529 35.1726C37.3633 33.6793 34.7958 34.7429 34.7958 36.8523C34.7958 38.9634 37.3632 40.027 38.8529 38.5337C39.7834 37.6051 39.7834 36.0994 38.8529 35.1726ZM37.5284 30.0308V16.7335H4.71927V37.1917C4.71927 38.1825 5.52536 38.9921 6.51613 38.9921H27.7539V32.7298C27.7539 31.2419 28.9666 30.031 30.4527 30.031L37.5284 30.0308ZM24.4902 18.5658L23.6273 19.4251H18.3468C17.9864 19.4251 17.6934 19.7181 17.6934 20.0785V25.6308C17.6934 25.993 17.9864 26.286 18.3468 26.286H23.9009C24.2613 26.286 24.5543 25.993 24.5543 25.6308V20.3504L25.4137 19.491C25.6694 19.2353 25.6694 18.8216 25.4137 18.5659C25.158 18.3102 24.7458 18.3101 24.4902 18.5658ZM23.2437 21.6588L21.5854 23.319C21.3297 23.5746 20.9177 23.5746 20.6621 23.319C20.4065 23.0633 20.4064 22.6495 20.6621 22.3939L22.3204 20.7337H19.0019V24.9773H23.242V21.6588L23.2437 21.6588ZM13.9396 18.5658L13.0803 19.4251H7.79982C7.43937 19.4251 7.14641 19.7181 7.14641 20.0785V25.6308C7.14641 25.993 7.43937 26.286 7.79982 26.286H13.3503C13.7143 26.286 14.0072 25.993 14.0072 25.6308V20.3504L14.8666 19.491C15.1223 19.2353 15.1223 18.8216 14.8666 18.5659C14.6109 18.3102 14.1953 18.3101 13.9396 18.5658ZM12.6967 21.6588L11.0384 23.319C10.7827 23.5746 10.3707 23.5746 10.1115 23.319C9.85582 23.0633 9.85582 22.6495 10.1115 22.3939L11.7734 20.7337H8.45132V24.9773H12.6967L12.6967 21.6588ZM18.3449 29.4393C17.9845 29.4393 17.6915 29.7322 17.6915 30.0927V35.645C17.6915 36.0072 17.9845 36.2984 18.3449 36.2984H23.899C24.2594 36.2984 24.5524 36.0054 24.5524 35.645V30.0927C24.5524 29.7322 24.2594 29.4393 23.899 29.4393H18.3449ZM23.2417 30.7479H19.0017V34.9915H23.2417V30.7479ZM7.79763 29.4393C7.43719 29.4393 7.14423 29.7322 7.14423 30.0927V35.645C7.14423 36.0072 7.43719 36.2984 7.79763 36.2984H13.3481C13.7121 36.2984 14.005 36.0054 14.005 35.645V30.0927C14.005 29.7322 13.7121 29.4393 13.3481 29.4393H7.79763ZM12.6945 30.7479H8.44909V34.9915H12.6945V30.7479ZM28.8931 19.4251C28.5291 19.4251 28.2361 19.7181 28.2361 20.0785V25.6308C28.2361 25.993 28.5291 26.286 28.8931 26.286H34.4435C34.804 26.286 35.097 25.993 35.097 25.6308V20.0785C35.097 19.7163 34.804 19.4251 34.4435 19.4251H28.8931ZM33.7899 20.7337H29.5445V24.9773H33.7899V20.7337ZM18.8149 10.0592H13.744V11.3323C13.744 12.3692 12.8988 13.2126 11.8637 13.2126H11.2334C10.1982 13.2126 9.35304 12.3692 9.35304 11.3323V10.0592H6.51568C5.52491 10.0592 4.71882 10.8688 4.71882 11.8578V15.4232H37.5279V11.8578C37.5279 10.8671 36.7218 10.0592 35.731 10.0592H32.6717V11.3323C32.6717 12.3692 31.8265 13.2126 30.7914 13.2126H30.1611C29.1224 13.2126 28.2772 12.3692 28.2772 11.3323V10.0592H23.2113V11.3323C23.2113 12.3692 22.3661 13.2126 21.3274 13.2126H20.6971C19.662 13.2126 18.8168 12.3692 18.8168 11.3323V10.0592H18.8149ZM21.3255 6.99101H20.6952C20.3809 6.99101 20.1253 7.24846 20.1253 7.56451V11.3323C20.1253 11.6466 20.381 11.904 20.6952 11.904H21.3255C21.6398 11.904 21.899 11.6465 21.899 11.3323V7.56273C21.899 7.24846 21.6398 6.98923 21.3255 6.98923V6.99101ZM30.791 6.99101H30.1607C29.8446 6.99101 29.5872 7.24846 29.5872 7.56451V11.3323C29.5872 11.6466 29.8464 11.904 30.1607 11.904H30.791C31.1053 11.904 31.361 11.6465 31.361 11.3323V7.56273C31.361 7.24846 31.1053 6.98923 30.791 6.98923V6.99101ZM11.8651 6.99101H11.2348C10.9187 6.99101 10.6613 7.24846 10.6613 7.56451V11.3323C10.6613 11.6466 10.9205 11.904 11.2348 11.904H11.8651C12.1811 11.904 12.4386 11.6465 12.4386 11.3323L12.4368 7.56273C12.4368 7.24846 12.1776 6.98923 11.8633 6.98923L11.8651 6.99101Z" fill="#333333"/>
</svg>
