<svg width="50" height="56" viewBox="0 0 50 56" fill="none" xmlns="http://www.w3.org/2000/svg">
<g filter="url(#filter0_d_272_852)">
<path fill-rule="evenodd" clip-rule="evenodd" d="M12.9995 9.70443L36.0158 9.60212L36.0143 42.7094H38.1066V7.51136H12.9995V9.70443ZM17.9691 2.54175V4.73482L40.9859 4.63251L40.9839 37.7393H43.0767V2.54175H17.9691ZM9.00712 43.3108L10.2898 44.5935L12.7095 42.1744L15.1357 44.6L17.5753 42.2008L19.9745 44.6L22.4146 42.2008L24.8138 44.6L27.2739 42.1803L29.6876 44.594L31.0527 43.229V14.5652H9.00712V43.3108ZM6.92285 12.481H33.137V44.0919L29.6876 47.5412L27.262 45.1156L24.8014 47.5353L22.4027 45.1361L19.9625 47.5353L17.5633 45.1361L15.1232 47.5353L12.7095 45.1216L10.2898 47.5417L6.92285 44.1738V12.481ZM21.6849 32.6798C22.1511 32.2122 22.3962 31.5054 22.1441 30.885C21.8142 30.073 20.8055 29.8369 20.0204 29.6048C19.1345 29.3428 18.2137 29.1082 17.452 28.5827C15.1826 27.017 15.3413 23.2302 17.9701 22.0838C18.2386 21.9665 18.5216 21.8881 18.8096 21.8272L18.57 19.9731H21.4119L21.1684 21.8587C21.641 21.968 22.0972 22.1362 22.501 22.3917C23.3555 22.9318 23.8181 23.7952 24.0213 24.7191L21.7523 25.1683C21.6435 24.8463 21.4703 24.5459 21.2003 24.3298C20.8849 24.0772 20.4661 23.9609 20.0534 23.9475C19.3147 23.9235 18.3504 24.1157 18.0684 24.8593C17.9127 25.2711 18.0175 25.7487 18.3324 26.0667C18.6149 26.3517 19.3002 26.6481 20.3883 26.9566C21.4768 27.265 22.2819 27.5844 22.8034 27.9144C23.3245 28.2443 23.7328 28.695 24.0278 29.2669C24.9027 30.9659 24.5443 33.4904 22.9382 34.6992C22.4356 35.077 21.8317 35.3146 21.2018 35.4399L21.4119 37.0675H18.57L18.7866 35.391C18.1852 35.2408 17.6202 34.9817 17.1491 34.5969C16.2477 33.8607 15.7805 32.7612 15.5669 31.6402L17.7295 31.1516C17.9162 32.3125 18.7786 33.2294 20.0564 33.2294C20.7766 33.2294 21.3196 33.0462 21.6849 32.6798Z" fill="#333333"/>
</g>
<defs>
<filter id="filter0_d_272_852" x="-4" y="0" width="58" height="58" filterUnits="userSpaceOnUse" color-interpolation-filters="sRGB">
<feFlood flood-opacity="0" result="BackgroundImageFix"/>
<feColorMatrix in="SourceAlpha" type="matrix" values="0 0 0 0 0 0 0 0 0 0 0 0 0 0 0 0 0 0 127 0" result="hardAlpha"/>
<feOffset dy="4"/>
<feGaussianBlur stdDeviation="2"/>
<feComposite in2="hardAlpha" operator="out"/>
<feColorMatrix type="matrix" values="0 0 0 0 0 0 0 0 0 0 0 0 0 0 0 0 0 0 0.25 0"/>
<feBlend mode="normal" in2="BackgroundImageFix" result="effect1_dropShadow_272_852"/>
<feBlend mode="normal" in="SourceGraphic" in2="effect1_dropShadow_272_852" result="shape"/>
</filter>
</defs>
</svg>
