<svg width="50" height="50" viewBox="0 0 50 50" fill="none" xmlns="http://www.w3.org/2000/svg">
<g clip-path="url(#clip0_272_808)">
<path d="M39.0557 34.9375C34.9199 34.9375 31.5557 38.3018 31.5557 42.4375C31.5557 46.5732 34.9199 49.9375 39.0557 49.9375C43.1914 49.9375 46.5557 46.5732 46.5557 42.4375C46.5557 38.3018 43.1914 34.9375 39.0557 34.9375ZM39.0557 48.2709C35.8395 48.2709 33.2224 45.6537 33.2224 42.4376C33.2224 39.2215 35.8395 36.6043 39.0557 36.6043C42.2718 36.6043 44.889 39.2215 44.889 42.4376C44.889 45.6537 42.2718 48.2709 39.0557 48.2709Z" fill="#333333"/>
<path d="M42.9225 39.2972C42.5677 39.0035 42.0436 39.0506 41.7482 39.4038L38.1659 43.7032L36.3112 41.8485C35.9857 41.523 35.4584 41.523 35.1328 41.8485C34.8073 42.174 34.8073 42.7013 35.1328 43.0269L37.6328 45.5269C37.789 45.6839 38.0014 45.771 38.2219 45.771C38.2342 45.771 38.2471 45.771 38.2594 45.7703C38.4937 45.7597 38.7118 45.6514 38.8624 45.4716L43.0291 40.4716C43.3238 40.1175 43.2758 39.5918 42.9225 39.2972Z" fill="#333333"/>
<path d="M39.3777 0.041748H6.05254C4.67148 0.041748 3.44434 1.05737 3.44434 2.43433V47.4409C3.44434 48.8178 4.66914 50.0417 6.04688 50.0417H31.16C31.6206 50.0417 31.9933 49.669 31.9933 49.2084C31.9933 48.7479 31.6205 48.3751 31.16 48.3751H6.04688C5.58789 48.3751 5.11104 47.8983 5.11104 47.4409V2.43433C5.11104 1.977 5.59121 1.70845 6.05264 1.70845H39.3778C39.8319 1.70845 40.111 1.98267 40.111 2.4311V31.6042C40.111 32.0649 40.4838 32.4375 40.9443 32.4375C41.405 32.4375 41.7776 32.0648 41.7776 31.6042V2.4311C41.7776 1.05659 40.7588 0.041748 39.3777 0.041748Z" fill="#333333"/>
<path d="M26.8814 5.875H18.5481C18.0875 5.875 17.7148 6.24775 17.7148 6.7083C17.7148 7.16895 18.0876 7.5416 18.5481 7.5416H26.8814C27.3421 7.5416 27.7147 7.16885 27.7147 6.7083C27.7147 6.24775 27.342 5.875 26.8814 5.875Z" fill="#333333"/>
<path d="M34.3814 11.7085H11.0481C10.5875 11.7085 10.2148 12.0812 10.2148 12.5418C10.2148 13.0024 10.5876 13.3751 11.0481 13.3751H34.3814C34.8421 13.3751 35.2147 13.0023 35.2147 12.5418C35.2147 12.0812 34.842 11.7085 34.3814 11.7085Z" fill="#333333"/>
<path d="M34.3814 17.5417H11.0481C10.5875 17.5417 10.2148 17.9145 10.2148 18.375C10.2148 18.8357 10.5876 19.2084 11.0481 19.2084H34.3814C34.8421 19.2084 35.2147 18.8356 35.2147 18.375C35.2147 17.9145 34.842 17.5417 34.3814 17.5417Z" fill="#333333"/>
<path d="M34.3814 23.375H11.0481C10.5875 23.375 10.2148 23.7478 10.2148 24.2083C10.2148 24.6689 10.5876 25.0416 11.0481 25.0416H34.3814C34.8421 25.0416 35.2147 24.6688 35.2147 24.2083C35.2147 23.7478 34.842 23.375 34.3814 23.375Z" fill="#333333"/>
<path d="M34.3821 29.2085H11.0488C10.5882 29.2085 10.1113 29.4771 10.1113 29.9377V42.4377C10.1113 42.8983 10.5882 43.3752 11.0488 43.3752H29.3821C29.8428 43.3752 30.2154 43.0024 30.2154 42.5419C30.2154 42.0813 29.8427 41.7086 29.3821 41.7086H11.7779V30.8751H33.4446V34.1043C33.4446 34.5649 33.8174 34.9376 34.2779 34.9376C34.7386 34.9376 35.1112 34.5648 35.1112 34.1043V29.9376C35.1113 29.4771 34.8427 29.2085 34.3821 29.2085Z" fill="#333333"/>
</g>
<defs>
<clipPath id="clip0_272_808">
<rect width="50" height="50" fill="white"/>
</clipPath>
</defs>
</svg>
