<svg width="52" height="55" viewBox="0 0 52 55" fill="none" xmlns="http://www.w3.org/2000/svg">
<g filter="url(#filter0_d_272_604)">
<path fill-rule="evenodd" clip-rule="evenodd" d="M34.1438 25.9402H34.7635C34.854 25.9402 34.9286 25.8657 34.9286 25.7769V24.3049C34.9286 23.9037 34.0248 24.4274 33.2542 23.8415C33.0056 23.6533 32.8157 23.3763 32.7287 23.0621C32.5706 22.4868 32.3309 21.9133 32.038 21.3966C31.7077 20.816 31.8054 20.0986 32.2741 19.6299L32.7127 19.1931C32.7766 19.1292 32.7766 19.0244 32.7127 18.9623L31.6687 17.9218C31.3881 17.6377 31.12 18.6462 30.1559 18.7776C29.8487 18.8202 29.5256 18.7616 29.2362 18.5965C28.7177 18.3035 28.1442 18.0638 27.5707 17.9058C26.9297 17.7282 26.4893 17.1512 26.4893 16.4889V15.871C26.4893 15.7822 26.4148 15.7076 26.3242 15.7076H24.8523C24.451 15.7076 24.9801 16.6167 24.3906 17.382C24.1989 17.6306 23.929 17.817 23.6094 17.9058C23.0305 18.0656 22.4606 18.3035 21.9439 18.5964C21.3615 18.9249 20.6459 18.829 20.1754 18.3585L19.7404 17.92C19.6765 17.856 19.5717 17.8578 19.5078 17.92L18.4691 18.9605C18.1832 19.2445 19.1935 19.5091 19.3249 20.4732C19.3657 20.784 19.3071 21.1053 19.1455 21.3965C18.849 21.9132 18.6129 22.4867 18.4513 23.062C18.2755 23.7065 17.7003 24.1415 17.0362 24.1415H16.4165C16.3295 24.1415 16.2549 24.2161 16.2549 24.3049V25.7769C16.2549 26.1799 17.1587 25.6526 17.9293 26.2403C18.1779 26.4285 18.3643 26.7054 18.4513 27.0197C18.6129 27.595 18.849 28.1685 19.1455 28.6852C19.4722 29.2658 19.3746 29.9814 18.9058 30.4519L18.4708 30.8887C18.4069 30.9508 18.4069 31.0574 18.4708 31.1195L19.5095 32.16C19.7865 32.4388 20.0724 31.432 21.0223 31.3042C21.333 31.2616 21.6562 31.3202 21.9456 31.4853C22.464 31.7783 23.034 32.018 23.6111 32.176C24.2521 32.3535 24.6924 32.9306 24.6924 33.5929V34.2108C24.6924 34.2996 24.7634 34.3742 24.854 34.3742H26.3259C26.7272 34.3742 26.2016 33.4704 26.7911 32.6998C26.9793 32.453 27.2563 32.263 27.5724 32.176C28.1459 32.0162 28.7211 31.7783 29.2379 31.4853C29.8167 31.1569 30.5323 31.2527 31.0028 31.7233L31.4413 32.1601C31.5053 32.2222 31.61 32.2222 31.6704 32.1601L32.7144 31.1196C33.0003 30.8355 31.9864 30.5691 31.8586 29.6068C31.8142 29.2961 31.8728 28.9747 32.038 28.6853C32.3309 28.1686 32.5706 27.5951 32.7286 27.0198C32.9044 26.3806 33.4833 25.9402 34.1438 25.9402ZM14.9765 44.3352V45.3242C15.2695 45.3242 15.502 45.3455 15.7382 45.1058C15.8732 44.9709 15.9566 44.7862 15.9566 44.5838V35.4166C15.9566 35.01 15.6228 34.6762 15.2162 34.6762H6.04894C5.64411 34.6762 5.3103 35.01 5.3103 35.4166V44.5838C5.3103 44.9904 5.64411 45.3242 6.04894 45.3242H6.28864L6.28509 44.3264C6.28509 43.8718 6.45732 43.4617 6.78404 43.1421C8.92004 41.0327 12.3577 41.0416 14.4845 43.158C14.8077 43.4776 14.9763 43.8771 14.9763 44.3335L14.9765 44.3352ZM13.675 45.3242H7.59182V44.3264C7.59182 44.2198 7.622 44.147 7.69658 44.0725C9.32476 42.4674 11.9455 42.4727 13.5666 44.0831C13.6376 44.1541 13.6749 44.234 13.6749 44.3335L13.675 45.3242ZM10.6352 35.6438C12.1374 35.6438 13.3554 36.8636 13.3554 38.3657C13.3554 39.8696 12.1356 41.0877 10.6352 41.0877C9.13309 41.0877 7.9115 39.8679 7.9115 38.3657C7.9115 36.8636 9.13132 35.6438 10.6352 35.6438ZM11.6331 37.3661C12.1853 37.9183 12.1853 38.8132 11.6331 39.3654C10.7435 40.2531 9.22009 39.6211 9.22009 38.3657C9.22009 37.1104 10.7435 36.4783 11.6331 37.3661ZM6.049 33.3675H15.2181C16.3474 33.3675 17.2671 34.2872 17.2671 35.4165V44.5838C17.2671 45.7131 16.3474 46.6328 15.2181 46.6328H6.049C4.91973 46.6328 4 45.7131 4 44.5838V35.4165C4 34.2872 4.91973 33.3675 6.049 33.3675ZM44.8931 14.4184L44.8966 15.4074C45.1896 15.4074 45.4186 15.4287 45.6584 15.189C45.7898 15.0541 45.8768 14.8694 45.8768 14.6652V5.4998C45.8768 5.09319 45.543 4.75939 45.1328 4.75939H35.9674C35.559 4.75939 35.2234 5.0932 35.2234 5.4998V14.6671C35.2234 15.0737 35.5572 15.4075 35.9674 15.4075H36.2035L36.2 14.4096C36.2 13.9551 36.3722 13.5449 36.6989 13.2253C38.8385 11.1159 42.2725 11.1248 44.403 13.2413C44.7262 13.5609 44.8913 13.9604 44.8913 14.4167L44.8931 14.4184ZM43.5916 15.4074H37.5084V14.4096C37.5084 14.303 37.5421 14.2284 37.6167 14.1557C39.2414 12.5506 41.8621 12.5559 43.4867 14.1663C43.5577 14.2373 43.5915 14.3172 43.5915 14.4167L43.5916 15.4074ZM40.5518 5.72696C42.054 5.72696 43.272 6.94501 43.272 8.44892C43.272 9.95283 42.0522 11.1709 40.5518 11.1709C39.0497 11.1709 37.8316 9.95105 37.8316 8.44892C37.8316 6.94678 39.0479 5.72696 40.5518 5.72696ZM41.5497 7.44928C42.1019 8.00146 42.1019 8.89637 41.5497 9.44855C40.6637 10.3363 39.1367 9.70424 39.1367 8.44892C39.1367 7.1936 40.6637 6.56151 41.5497 7.44928ZM35.9692 3.45069H45.1347C46.264 3.45069 47.1837 4.37042 47.1837 5.49969V14.667C47.1837 15.7962 46.264 16.716 45.1347 16.716H35.9692C34.84 16.716 33.9202 15.7962 33.9202 14.667L33.9184 5.49969C33.9184 4.37042 34.8382 3.45069 35.9675 3.45069H35.9692ZM28.1888 4.78237C27.9562 4.50716 27.9899 4.09524 28.2669 3.86265C28.5403 3.63005 28.954 3.66378 29.1866 3.939L31.2143 6.34136C31.4877 6.66806 31.3794 7.15459 31.0083 7.34631L28.242 8.81118C27.9224 8.97808 27.5283 8.85734 27.3596 8.53774C27.1909 8.21814 27.3152 7.82397 27.633 7.65529L28.8599 7.00542C22.8354 5.92233 16.8126 7.90742 12.6367 12.0836C8.19251 16.5261 6.29446 22.9804 7.75037 29.2268C7.83205 29.5783 7.61188 29.9299 7.2621 30.0116C6.90876 30.0933 6.55719 29.8749 6.47728 29.5233C4.91655 22.8292 6.94601 15.9206 11.7136 11.1588C16.1543 6.71633 22.5305 4.58379 28.9632 5.69879L28.1908 4.78083L28.1888 4.78237ZM22.9951 45.2992C23.2277 45.5744 23.194 45.9863 22.9206 46.2189C22.6471 46.4515 22.2334 46.4178 22.0008 46.1426L19.9732 43.742C19.6962 43.4153 19.808 42.9288 20.1791 42.7371L22.9419 41.2722C23.2615 41.1053 23.6592 41.226 23.8243 41.5456C23.993 41.8652 23.8723 42.2594 23.5545 42.4263L22.3276 43.0762C28.3521 44.1593 34.3712 42.1742 38.5476 37.998C42.9918 33.5555 44.8935 27.1012 43.4375 20.8548C43.3541 20.5033 43.5725 20.1517 43.9258 20.07C44.2756 19.9883 44.6272 20.2067 44.7106 20.5583C46.2714 27.2524 44.2383 34.161 39.4743 38.9228C35.0301 43.367 28.6575 45.4978 22.2211 44.3828L22.9935 45.299L22.9951 45.2992ZM24.943 22.4619C24.943 22.1015 25.2324 21.8103 25.5928 21.8103C25.9533 21.8103 26.2462 22.1015 26.2462 22.4619V24.6636L27.7697 25.5426C28.0804 25.7237 28.1852 26.1231 28.0058 26.4356C27.8265 26.7481 27.4288 26.8547 27.1127 26.6736L25.2662 25.6064C25.0708 25.4928 24.943 25.2833 24.943 25.0418L24.943 22.4619ZM22.7022 28.1596C20.9799 26.5616 20.8751 23.8681 22.4731 22.1474C24.0676 20.4268 26.7629 20.3221 28.4854 21.9183C30.2041 23.5146 30.3089 26.2099 28.7145 27.9306C27.1165 29.6511 24.4211 29.7559 22.7022 28.1596ZM29.6676 28.8201C28.707 29.8571 27.2582 30.5691 25.7756 30.5939C22.7198 30.6969 20.1542 28.3088 20.037 25.2457C19.9801 23.7116 20.5465 22.3001 21.516 21.2561C23.6023 19.0064 27.1233 18.875 29.3746 20.9613C31.6225 23.0476 31.7539 26.5686 29.6676 28.8181L29.6676 28.8201ZM33.6378 18.032C34.2113 18.6055 34.2113 19.5394 33.6378 20.1129L33.2028 20.5497C33.1424 20.6083 33.1353 20.6775 33.1726 20.7468C33.526 21.37 33.7958 22.0146 33.9876 22.7088C34.0107 22.7869 34.0657 22.8278 34.1492 22.8278C34.7902 22.8278 35.3051 22.7585 35.804 23.2592C36.0704 23.5256 36.2355 23.8931 36.2355 24.2997V25.7717C36.2355 26.5831 35.575 27.2436 34.7635 27.2436H34.1438C34.0604 27.2436 34.0089 27.2827 33.9858 27.3626C33.7941 28.0568 33.5242 28.7014 33.1708 29.3246C33.1335 29.3938 33.1406 29.4631 33.201 29.5217C33.6555 29.978 34.0675 30.2923 34.0675 31.0007C34.0675 31.3771 33.9254 31.7535 33.636 32.0412L32.5973 33.0817C32.0238 33.6552 31.088 33.6552 30.5145 33.0817L30.0795 32.6449C30.0192 32.5863 29.9517 32.5775 29.8807 32.6165C29.2574 32.9699 28.6165 33.238 27.9187 33.4298C27.8441 33.4511 27.8015 33.5061 27.8015 33.5896C27.8015 34.2323 27.8689 34.7472 27.37 35.2479C27.1037 35.5143 26.7326 35.6794 26.326 35.6794H24.854C24.0444 35.6794 23.3821 35.0189 23.3821 34.2074C23.3821 34.0885 23.3998 33.5593 23.3643 33.5007L23.2631 33.4297C22.5689 33.238 21.9243 32.9699 21.3011 32.6165C21.2336 32.5774 21.1626 32.5881 21.1058 32.6449C20.6477 33.1012 20.337 33.5096 19.6267 33.5096C19.2468 33.5096 18.8721 33.3675 18.5827 33.0817L17.544 32.0412C16.9705 31.4677 16.9705 30.5337 17.544 29.9602L17.9825 29.5234C18.0393 29.4648 18.05 29.3956 18.0092 29.3263C17.6558 28.7031 17.3895 28.0586 17.1959 27.3643C17.1782 27.2862 17.1214 27.2454 17.0379 27.2454C16.3916 27.2454 15.882 27.3146 15.3795 26.8139C15.1132 26.5476 14.9481 26.18 14.9481 25.7734V24.3015C14.9481 23.49 15.6086 22.8295 16.42 22.8295H17.0397C17.1232 22.8295 17.1782 22.7851 17.1977 22.7105C17.3931 22.0163 17.6594 21.3718 18.011 20.7468C18.0518 20.6775 18.0411 20.6083 17.9843 20.5497C17.5262 20.0951 17.1179 19.7809 17.1179 19.0724C17.1179 18.696 17.2599 18.3178 17.5458 18.0319L18.5845 16.9914C18.8739 16.7038 19.2486 16.5635 19.6286 16.5635C20.337 16.5635 20.6495 16.9736 21.1076 17.4282C21.1644 17.4868 21.2355 17.4956 21.3029 17.4566C21.9261 17.1032 22.5707 16.8351 23.2649 16.6434C23.6254 16.5439 23.0323 15.61 23.8171 14.8252C24.0834 14.5588 24.451 14.3937 24.8558 14.3937H26.3278C27.1428 14.3937 27.8033 15.0542 27.8033 15.8657C27.8033 15.9846 27.7855 16.5138 27.821 16.5723L27.9187 16.6434C28.6129 16.8369 29.2592 17.1032 29.8807 17.4566C29.9517 17.4957 30.0192 17.4868 30.0796 17.4282C30.5341 16.9719 30.8484 16.5599 31.5586 16.5599C31.9333 16.5599 32.3132 16.7037 32.5973 16.9914L33.6361 18.0319L33.6378 18.032Z" fill="#333333"/>
</g>
<defs>
<filter id="filter0_d_272_604" x="-3.4082" y="0" width="58" height="58" filterUnits="userSpaceOnUse" color-interpolation-filters="sRGB">
<feFlood flood-opacity="0" result="BackgroundImageFix"/>
<feColorMatrix in="SourceAlpha" type="matrix" values="0 0 0 0 0 0 0 0 0 0 0 0 0 0 0 0 0 0 127 0" result="hardAlpha"/>
<feOffset dy="4"/>
<feGaussianBlur stdDeviation="2"/>
<feComposite in2="hardAlpha" operator="out"/>
<feColorMatrix type="matrix" values="0 0 0 0 0 0 0 0 0 0 0 0 0 0 0 0 0 0 0.25 0"/>
<feBlend mode="normal" in2="BackgroundImageFix" result="effect1_dropShadow_272_604"/>
<feBlend mode="normal" in="SourceGraphic" in2="effect1_dropShadow_272_604" result="shape"/>
</filter>
</defs>
</svg>
