<svg width="24" height="24" viewBox="0 0 24 24" fill="none" xmlns="http://www.w3.org/2000/svg">
<path d="M21 15L17.914 11.914C17.5389 11.539 17.0303 11.3284 16.5 11.3284C15.9697 11.3284 15.4611 11.539 15.086 11.914L6 21M5 2.99997H19C20.1046 2.99997 21 3.8954 21 4.99997V19C21 20.1045 20.1046 21 19 21H5C3.89543 21 3 20.1045 3 19V4.99997C3 3.8954 3.89543 2.99997 5 2.99997ZM11 8.99997C11 10.1045 10.1046 11 9 11C7.89543 11 7 10.1045 7 8.99997C7 7.8954 7.89543 6.99997 9 6.99997C10.1046 6.99997 11 7.8954 11 8.99997Z" stroke="#D2D2D2" stroke-width="1.5" stroke-linecap="round" stroke-linejoin="round"/>
</svg>
