<svg width="24" height="24" viewBox="0 0 24 24" fill="none" xmlns="http://www.w3.org/2000/svg">
<path d="M10.9863 15H12.9863C13.5168 15 14.0255 14.7893 14.4005 14.4142C14.7756 14.0392 14.9863 13.5305 14.9863 13C14.9863 12.4696 14.7756 11.9609 14.4005 11.5858C14.0255 11.2107 13.5168 11 12.9863 11H9.98633C9.38633 11 8.88633 11.2 8.58633 11.6L2.98633 17M6.98633 21L8.58633 19.6C8.88633 19.2 9.38633 19 9.98633 19H13.9863C15.0863 19 16.0863 18.6 16.7863 17.8L21.3863 13.4C21.7722 13.0354 21.9974 12.5323 22.0124 12.0016C22.0274 11.4709 21.831 10.9559 21.4663 10.57C21.1017 10.1841 20.5986 9.95892 20.0679 9.94392C19.5372 9.92892 19.0222 10.1254 18.6363 10.49L14.4363 14.39M1.98633 16L7.98633 22M18.8863 9.00003C18.8863 10.6017 17.588 11.9 15.9863 11.9C14.3847 11.9 13.0863 10.6017 13.0863 9.00003C13.0863 7.3984 14.3847 6.10003 15.9863 6.10003C17.588 6.10003 18.8863 7.3984 18.8863 9.00003ZM8.98633 5.00003C8.98633 6.65688 7.64318 8.00003 5.98633 8.00003C4.32947 8.00003 2.98633 6.65688 2.98633 5.00003C2.98633 3.34318 4.32947 2.00003 5.98633 2.00003C7.64318 2.00003 8.98633 3.34318 8.98633 5.00003Z" stroke="#6B6B6B" stroke-width="1.5" stroke-linecap="round" stroke-linejoin="round"/>
</svg>
