<svg width="24" height="24" viewBox="0 0 24 24" fill="none" xmlns="http://www.w3.org/2000/svg">
<path d="M15 21.5003V13.5003C15 13.235 14.8946 12.9807 14.7071 12.7932C14.5196 12.6056 14.2652 12.5003 14 12.5003H10C9.73478 12.5003 9.48043 12.6056 9.29289 12.7932C9.10536 12.9807 9 13.235 9 13.5003V21.5003M3 10.5003C2.99993 10.2093 3.06333 9.92189 3.18579 9.65798C3.30824 9.39408 3.4868 9.16006 3.709 8.97227L10.709 2.97227C11.07 2.66717 11.5274 2.49979 12 2.49979C12.4726 2.49979 12.93 2.66717 13.291 2.97227L20.291 8.97227C20.5132 9.16006 20.6918 9.39408 20.8142 9.65798C20.9367 9.92189 21.0001 10.2093 21 10.5003V19.5003C21 20.0307 20.7893 20.5394 20.4142 20.9145C20.0391 21.2896 19.5304 21.5003 19 21.5003H5C4.46957 21.5003 3.96086 21.2896 3.58579 20.9145C3.21071 20.5394 3 20.0307 3 19.5003V10.5003Z" stroke="#FF6634" stroke-width="1.5" stroke-linecap="round" stroke-linejoin="round"/>
</svg>
