<svg width="20" height="20" viewBox="0 0 20 20" fill="none" xmlns="http://www.w3.org/2000/svg">
<path d="M12.0471 15.985L12.8163 15.6667M12.8163 13.7533L12.0471 13.4342M14.1696 12.4L13.8505 11.6308M14.1696 17.02L13.8505 17.79M16.083 12.4L16.4021 11.6308M16.4013 17.79L16.083 17.02M1.79297 17.21C1.79307 16.1608 2.0408 15.1264 2.51602 14.191C2.99123 13.2556 3.68052 12.4456 4.52782 11.8268C5.37512 11.208 6.35651 10.798 7.39216 10.63C8.42782 10.462 9.48851 10.5408 10.488 10.86M17.4363 13.7533L18.2063 13.4342M17.4363 15.6667L18.2063 15.9858M12.6263 6.37667C12.6263 8.67785 10.7608 10.5433 8.45964 10.5433C6.15845 10.5433 4.29297 8.67785 4.29297 6.37667C4.29297 4.07548 6.15845 2.21 8.45964 2.21C10.7608 2.21 12.6263 4.07548 12.6263 6.37667ZM17.6263 14.71C17.6263 16.0907 16.507 17.21 15.1263 17.21C13.7456 17.21 12.6263 16.0907 12.6263 14.71C12.6263 13.3293 13.7456 12.21 15.1263 12.21C16.507 12.21 17.6263 13.3293 17.6263 14.71Z" stroke="#6B6B6B" stroke-width="1.5" stroke-linecap="round" stroke-linejoin="round"/>
</svg>
