<svg width="24" height="24" viewBox="0 0 24 24" fill="none" xmlns="http://www.w3.org/2000/svg">
<path d="M10.2675 21.0001C10.4431 21.3041 10.6955 21.5565 10.9996 21.732C11.3036 21.9076 11.6485 22 11.9995 22C12.3506 22 12.6954 21.9076 12.9995 21.732C13.3035 21.5565 13.556 21.3041 13.7315 21.0001M3.26151 15.3261C3.13088 15.4692 3.04467 15.6473 3.01337 15.8386C2.98207 16.0299 3.00703 16.2261 3.08522 16.4035C3.16341 16.5808 3.29145 16.7316 3.45377 16.8375C3.61609 16.9435 3.80569 16.9999 3.99951 17.0001H19.9995C20.1933 17.0001 20.383 16.9439 20.5454 16.8382C20.7078 16.7324 20.836 16.5818 20.9144 16.4046C20.9928 16.2273 21.018 16.0311 20.987 15.8398C20.9559 15.6486 20.8699 15.4704 20.7395 15.3271C19.4095 13.9561 17.9995 12.4991 17.9995 8.00006C17.9995 6.40876 17.3674 4.88264 16.2422 3.75742C15.1169 2.6322 13.5908 2.00006 11.9995 2.00006C10.4082 2.00006 8.88209 2.6322 7.75687 3.75742C6.63165 4.88264 5.99951 6.40876 5.99951 8.00006C5.99951 12.4991 4.58851 13.9561 3.26151 15.3261Z" stroke="#333333" stroke-width="1.5" stroke-linecap="round" stroke-linejoin="round"/>
</svg>
