<svg width="20" height="20" viewBox="0 0 20 20" fill="none" xmlns="http://www.w3.org/2000/svg">
<path d="M10.0003 10.8333H10.0087M13.3337 5.83331V4.16665C13.3337 3.72462 13.1581 3.3007 12.8455 2.98814C12.5329 2.67558 12.109 2.49998 11.667 2.49998H8.33366C7.89163 2.49998 7.46771 2.67558 7.15515 2.98814C6.84259 3.3007 6.66699 3.72462 6.66699 4.16665V5.83331M18.3337 11.6666C15.861 13.2991 12.9633 14.1694 10.0003 14.1694C7.03737 14.1694 4.13967 13.2991 1.66699 11.6666M3.33366 5.83331H16.667C17.5875 5.83331 18.3337 6.57951 18.3337 7.49998V15.8333C18.3337 16.7538 17.5875 17.5 16.667 17.5H3.33366C2.41318 17.5 1.66699 16.7538 1.66699 15.8333V7.49998C1.66699 6.57951 2.41318 5.83331 3.33366 5.83331Z" stroke="#333333" stroke-width="1.5" stroke-linecap="round" stroke-linejoin="round"/>
</svg>
