<svg width="24" height="24" viewBox="0 0 24 24" fill="none" xmlns="http://www.w3.org/2000/svg">
<rect width="24" height="24" rx="12" fill="white"/>
<path d="M11.7206 7.2261H7.79002C7.49217 7.2261 7.20653 7.34442 6.99592 7.55503C6.78531 7.76564 6.66699 8.05128 6.66699 8.34913V16.2103C6.66699 16.5081 6.78531 16.7938 6.99592 17.0044C7.20653 17.215 7.49217 17.3333 7.79002 17.3333H15.6512C15.949 17.3333 16.2347 17.215 16.4453 17.0044C16.6559 16.7938 16.7742 16.5081 16.7742 16.2103V12.2797M15.3002 7.01554C15.5236 6.79215 15.8266 6.66666 16.1425 6.66666C16.4584 6.66666 16.7614 6.79215 16.9848 7.01554C17.2082 7.23892 17.3337 7.54189 17.3337 7.8578C17.3337 8.17372 17.2082 8.47669 16.9848 8.70007L11.9239 13.7615C11.7905 13.8948 11.6258 13.9923 11.4449 14.0451L9.83167 14.5168C9.78336 14.5309 9.73214 14.5317 9.68338 14.5192C9.63463 14.5067 9.59013 14.4814 9.55454 14.4458C9.51895 14.4102 9.49358 14.3657 9.48109 14.3169C9.4686 14.2682 9.46944 14.217 9.48354 14.1686L9.95521 12.5554C10.0083 12.3746 10.106 12.2101 10.2393 12.077L15.3002 7.01554Z" stroke="#333333" stroke-linecap="round" stroke-linejoin="round"/>
</svg>
