<svg width="20" height="20" viewBox="0 0 20 20" fill="none" xmlns="http://www.w3.org/2000/svg">
<g clip-path="url(#clip0_450_3805)">
<path d="M5.83366 15V9.99997C5.83366 8.89491 6.27265 7.8351 7.05405 7.0537C7.83545 6.27229 8.89526 5.83331 10.0003 5.83331C11.1054 5.83331 12.1652 6.27229 12.9466 7.0537C13.728 7.8351 14.167 8.89491 14.167 9.99997V15M5.83366 15H14.167M5.83366 15C5.39163 15 4.96771 15.1756 4.65515 15.4881C4.34259 15.8007 4.16699 16.2246 4.16699 16.6666V17.5C4.16699 17.721 4.25479 17.933 4.41107 18.0892C4.56735 18.2455 4.77931 18.3333 5.00033 18.3333H15.0003C15.2213 18.3333 15.4333 18.2455 15.5896 18.0892C15.7459 17.933 15.8337 17.721 15.8337 17.5V16.6666C15.8337 16.2246 15.6581 15.8007 15.3455 15.4881C15.0329 15.1756 14.609 15 14.167 15M17.5003 9.99997H18.3337M15.417 3.74997L15.0003 4.16664M1.66699 9.99997H2.50033M10.0003 1.66664V2.49997M4.10783 4.10747L4.69699 4.69664M10.0003 9.99997V15" stroke="#333333" stroke-width="1.5" stroke-linecap="round" stroke-linejoin="round"/>
</g>
<defs>
<clipPath id="clip0_450_3805">
<rect width="20" height="20" fill="white"/>
</clipPath>
</defs>
</svg>
