<svg width="20" height="20" viewBox="0 0 20 20" fill="none" xmlns="http://www.w3.org/2000/svg">
<path d="M11.2503 6.66666H8.75033M12.5003 1.66666L11.667 3.33332H14.167C14.609 3.33332 15.0329 3.50892 15.3455 3.82148C15.6581 4.13404 15.8337 4.55796 15.8337 4.99999V16.6667C15.8337 17.1087 15.6581 17.5326 15.3455 17.8452C15.0329 18.1577 14.609 18.3333 14.167 18.3333H5.83366C5.39163 18.3333 4.96771 18.1577 4.65515 17.8452C4.34259 17.5326 4.16699 17.1087 4.16699 16.6667V4.99999C4.16699 4.55796 4.34259 4.13404 4.65515 3.82148C4.96771 3.50892 5.39163 3.33332 5.83366 3.33332H8.33366M14.0828 18.3333C13.8912 17.3919 13.38 16.5456 12.636 15.9377C11.8919 15.3299 10.9607 14.9979 9.99991 14.9979C9.03914 14.9979 8.10789 15.3299 7.36384 15.9377C6.61979 16.5456 6.10866 17.3919 5.91699 18.3333M7.50033 1.66666L10.0003 6.66666M12.5003 12.5C12.5003 13.8807 11.381 15 10.0003 15C8.61961 15 7.50033 13.8807 7.50033 12.5C7.50033 11.1193 8.61961 9.99999 10.0003 9.99999C11.381 9.99999 12.5003 11.1193 12.5003 12.5Z" stroke="#333333" stroke-width="1.5" stroke-linecap="round" stroke-linejoin="round"/>
</svg>
