<svg width="20" height="20" viewBox="0 0 20 20" fill="none" xmlns="http://www.w3.org/2000/svg">
<path d="M6.22331 12.2215H5.38997C4.50592 12.2215 3.65807 12.5727 3.03295 13.1978C2.40783 13.8229 2.05664 14.6708 2.05664 15.5548V17.2215M12.9325 10.2348C12.9875 10.066 13.0951 9.91908 13.2395 9.81564C13.3839 9.71221 13.5576 9.65762 13.7352 9.65986C13.9129 9.66209 14.0851 9.72102 14.2269 9.82806C14.3687 9.93509 14.4725 10.0846 14.5233 10.2548L15.1375 11.4648C15.1972 11.5825 15.2841 11.6842 15.3909 11.7617C15.4976 11.8392 15.6213 11.8903 15.7516 11.9107L17.1133 12.124C17.2886 12.1247 17.4593 12.1807 17.601 12.284C17.7427 12.3873 17.8482 12.5326 17.9024 12.6993C17.9567 12.8661 17.957 13.0457 17.9033 13.2126C17.8496 13.3795 17.7446 13.5252 17.6033 13.629L16.6266 14.6023C16.5331 14.6954 16.4631 14.8094 16.4222 14.9349C16.3814 15.0603 16.3709 15.1937 16.3916 15.324L16.6075 16.6682C16.6669 16.8366 16.6705 17.0197 16.6179 17.1905C16.5654 17.3612 16.4593 17.5105 16.3154 17.6164C16.1716 17.7222 15.9975 17.7791 15.8188 17.7785C15.6402 17.7779 15.4665 17.72 15.3233 17.6132L14.1025 16.9882C13.9849 16.9279 13.8546 16.8965 13.7225 16.8965C13.5903 16.8965 13.4601 16.9279 13.3425 16.9882L12.1216 17.6132C11.9785 17.7191 11.8051 17.7763 11.627 17.7765C11.4489 17.7767 11.2754 17.7199 11.132 17.6143C10.9886 17.5087 10.8828 17.3599 10.8301 17.1898C10.7774 17.0197 10.7805 16.8372 10.8391 16.669L11.0541 15.3248C11.0749 15.1945 11.0644 15.0612 11.0236 14.9357C10.9827 14.8102 10.9126 14.6963 10.8191 14.6032L9.85581 13.6423C9.70969 13.5411 9.59977 13.3958 9.5421 13.2277C9.48444 13.0595 9.48206 12.8773 9.5353 12.7077C9.58855 12.5381 9.69463 12.39 9.83805 12.285C9.98147 12.18 10.1547 12.1236 10.3325 12.124L11.6933 11.9107C11.8237 11.8903 11.9473 11.8392 12.0541 11.7617C12.1609 11.6842 12.2477 11.5825 12.3075 11.4648L12.9325 10.2348ZM11.2233 5.55484C11.2233 7.39579 9.73092 8.88817 7.88997 8.88817C6.04902 8.88817 4.55664 7.39579 4.55664 5.55484C4.55664 3.71389 6.04902 2.2215 7.88997 2.2215C9.73092 2.2215 11.2233 3.71389 11.2233 5.55484Z" stroke="#333333" stroke-width="1.5" stroke-linecap="round" stroke-linejoin="round"/>
</svg>
